<svg width="33" height="33" viewBox="0 0 33 33" fill="none" xmlns="http://www.w3.org/2000/svg">
<path d="M16.4324 19.8861C21.0073 19.8861 24.9138 20.6117 24.9138 23.514C24.9136 26.415 21.0323 27.1664 16.4324 27.1664C11.8576 27.1663 7.95105 26.4414 7.95093 23.5404C7.95093 20.638 11.8324 19.8861 16.4324 19.8861ZM9.25464 18.139C9.28058 18.1426 9.29406 18.1614 9.29663 18.1722C9.30021 18.1902 9.29295 18.2175 9.25952 18.2367C8.45011 18.6389 5.32603 20.3879 5.71851 24.0765C5.73521 24.2373 5.60861 24.3745 5.44995 24.3519C4.68115 24.2414 2.7024 23.8143 2.08862 22.4828C1.74841 21.778 1.7485 20.961 2.08862 20.2562C2.48976 19.3976 3.4574 18.8066 4.92944 18.516C5.62571 18.3467 7.50468 18.1066 9.25464 18.139ZM23.7468 18.138C25.4956 18.1056 27.376 18.3464 28.071 18.5169C29.5429 18.8063 30.5116 19.3968 30.9128 20.2552C31.2519 20.9601 31.2519 21.7781 30.9128 22.4818C30.2993 23.8133 28.3216 24.2413 27.5525 24.3519C27.3937 24.3759 27.2653 24.2372 27.282 24.0775C27.6746 20.3875 24.5502 18.638 23.7419 18.2357C23.7077 18.2177 23.7003 18.1899 23.7039 18.1732C23.7063 18.1612 23.7208 18.1417 23.7468 18.138ZM16.4324 5.83334C19.5471 5.83334 22.0445 8.3429 22.0447 11.4769C22.0447 14.6098 19.5472 17.1224 16.4324 17.1224C13.3176 17.1224 10.8201 14.6098 10.8201 11.4769C10.8202 8.34293 13.3177 5.83338 16.4324 5.83334ZM8.948 6.77475C9.27512 6.77475 9.58866 6.80899 9.89429 6.87143C9.93479 6.88107 9.97985 6.90191 10.0037 6.93784C10.0311 6.98346 10.0108 7.04471 9.98218 7.08432C9.07852 8.35826 8.55843 9.91192 8.55835 11.5785C8.55835 13.1755 9.03416 14.6639 9.86987 15.9007C9.9557 16.0279 9.87963 16.1993 9.72827 16.2259C9.51815 16.2631 9.30244 16.2824 9.08276 16.2884C6.8923 16.3458 4.92585 14.928 4.38257 12.7933C3.57673 9.62208 5.93959 6.77495 8.948 6.77475ZM24.0515 6.77475C27.0601 6.77475 29.4226 9.62197 28.6179 12.7933C28.0746 14.9281 26.1084 16.3461 23.9177 16.2884C23.6981 16.2824 23.4821 16.2619 23.2732 16.2259C23.1216 16.1995 23.0456 16.028 23.1316 15.9007C23.9671 14.664 24.443 13.1763 24.4431 11.5794C24.4431 9.91278 23.923 8.35835 23.0193 7.08432C22.9906 7.04469 22.9691 6.98347 22.9978 6.93784C23.0217 6.90073 23.0655 6.88102 23.1072 6.87143C23.4116 6.80899 23.7244 6.77476 24.0515 6.77475Z" fill="url(#paint0_linear_12863_2258)"/>
<defs>
<linearGradient id="paint0_linear_12863_2258" x1="31.1671" y1="27.1664" x2="-1.4821" y2="14.1498" gradientUnits="userSpaceOnUse">
<stop stop-color="#FB9400"/>
<stop offset="1" stop-color="#FFAB38"/>
</linearGradient>
</defs>
</svg>
