<svg width="30" height="30" viewBox="0 0 30 30" fill="none" xmlns="http://www.w3.org/2000/svg">
<path d="M3.96265 9.30078L15.0001 15.6883L25.9626 9.33824" stroke="#1531AD" stroke-width="1.5" stroke-linecap="round" stroke-linejoin="round"/>
<path d="M15 27.0133V15.6758" stroke="#1531AD" stroke-width="1.5" stroke-linecap="round" stroke-linejoin="round"/>
<path d="M12.4125 3.09997L5.73753 6.81251C4.22503 7.65001 2.98755 9.74999 2.98755 11.475V18.5375C2.98755 20.2625 4.22503 22.3625 5.73753 23.2L12.4125 26.9125C13.8375 27.7 16.175 27.7 17.6 26.9125L24.275 23.2C25.7875 22.3625 27.025 20.2625 27.025 18.5375V11.475C27.025 9.74999 25.7875 7.65001 24.275 6.81251L17.6 3.09997C16.1625 2.29997 13.8375 2.29997 12.4125 3.09997Z" stroke="#1531AD" stroke-width="1.5" stroke-linecap="round" stroke-linejoin="round"/>
<path d="M21.2499 16.55V11.975L9.38745 5.12497" stroke="#1531AD" stroke-width="1.5" stroke-linecap="round" stroke-linejoin="round"/>
</svg>
