<svg width="33" height="33" viewBox="0 0 33 33" fill="none" xmlns="http://www.w3.org/2000/svg">
<path d="M10.402 25.7106C11.5077 25.7108 12.4137 26.6361 12.4137 27.779C12.4136 28.9081 11.5076 29.8335 10.402 29.8337C9.28297 29.8337 8.37676 28.9082 8.37662 27.779C8.37662 26.636 9.28289 25.7106 10.402 25.7106ZM25.3903 25.7106C26.496 25.7108 27.402 26.6361 27.402 27.779C27.4019 28.9082 26.4959 29.8335 25.3903 29.8337C24.2713 29.8337 23.365 28.9082 23.3649 27.779C23.3649 26.636 24.2712 25.7106 25.3903 25.7106ZM3.18131 4.0202C3.27477 3.46392 3.79439 3.09542 4.34049 3.1784L7.51725 3.66668C7.97023 3.74968 8.30345 4.12983 8.34342 4.59246L8.59635 7.64031C8.63644 8.07695 8.98358 8.40301 9.40983 8.40301H27.402C28.2147 8.40301 28.748 8.68921 29.2809 9.31512C29.8137 9.94102 29.9067 10.839 29.7868 11.654L28.5212 20.5798C28.2813 22.2956 26.8421 23.5602 25.1501 23.5602H10.6149C8.84317 23.5601 7.3778 22.1735 7.23111 20.3776L6.00553 5.54461L3.99381 5.1911C3.46089 5.09585 3.08805 4.56447 3.18131 4.0202ZM19.3288 13.4362C18.7693 13.4362 18.3289 13.8854 18.3288 14.4567C18.3288 15.0146 18.7692 15.4772 19.3288 15.4772H23.0192C23.5786 15.477 24.0182 15.0145 24.0182 14.4567C24.0181 13.8855 23.5785 13.4364 23.0192 13.4362H19.3288Z" fill="url(#paint0_linear_12863_2283)"/>
<defs>
<linearGradient id="paint0_linear_12863_2283" x1="29.8332" y1="29.8337" x2="-1.89733" y2="20.6339" gradientUnits="userSpaceOnUse">
<stop stop-color="#FF5A5F"/>
<stop offset="1" stop-color="#FF8A9B"/>
</linearGradient>
</defs>
</svg>
