<svg width="25" height="25" viewBox="0 0 25 25" fill="none" xmlns="http://www.w3.org/2000/svg">
<path d="M22.9166 9.375V15.625C22.9166 18.2292 22.3958 20.0521 21.2291 21.2292L14.5833 14.5833L22.6353 6.53125C22.8228 7.35417 22.9166 8.29166 22.9166 9.375Z" stroke="#1531AD" stroke-width="1.5" stroke-linecap="round" stroke-linejoin="round"/>
<path d="M22.6353 6.53191L6.53116 22.6361C3.39574 21.9173 2.08325 19.7507 2.08325 15.6257V9.37565C2.08325 4.16732 4.16659 2.08398 9.37492 2.08398H15.6249C19.7499 2.08398 21.9166 3.39649 22.6353 6.53191Z" stroke="#1531AD" stroke-width="1.5" stroke-linecap="round" stroke-linejoin="round"/>
<path d="M21.2292 21.2298C20.0521 22.3965 18.2292 22.9173 15.625 22.9173H9.37501C8.29168 22.9173 7.35417 22.8236 6.53125 22.6361L14.5833 14.584L21.2292 21.2298Z" stroke="#1531AD" stroke-width="1.5" stroke-linecap="round" stroke-linejoin="round"/>
<path d="M6.49991 8.31274C7.20824 5.26066 11.7916 5.26066 12.4999 8.31274C12.9062 10.1044 11.7812 11.6252 10.7916 12.5627C10.0728 13.2502 8.93742 13.2502 8.20826 12.5627C7.21867 11.6252 6.08324 10.1044 6.49991 8.31274Z" stroke="#1531AD" stroke-width="1.5"/>
<path d="M9.47361 9.0638H9.48296" stroke="#1531AD" stroke-width="2" stroke-linecap="round" stroke-linejoin="round"/>
</svg>
