<svg width="30" height="30" viewBox="0 0 30 30" fill="none" xmlns="http://www.w3.org/2000/svg">
<path d="M14.9999 17.5H16.2499C17.6249 17.5 18.7499 16.375 18.7499 15V2.49997H7.49994C5.62494 2.49997 3.98745 3.53745 3.13745 5.06245" stroke="#1531AD" stroke-width="1.5" stroke-linecap="round" stroke-linejoin="round"/>
<path d="M2.5 21.25C2.5 23.325 4.175 25 6.25 25H7.5C7.5 23.625 8.625 22.5 10 22.5C11.375 22.5 12.5 23.625 12.5 25H17.5C17.5 23.625 18.625 22.5 20 22.5C21.375 22.5 22.5 23.625 22.5 25H23.75C25.825 25 27.5 23.325 27.5 21.25V17.5H23.75C23.0625 17.5 22.5 16.9375 22.5 16.25V12.5C22.5 11.8125 23.0625 11.25 23.75 11.25H25.3625L23.225 7.51248C22.775 6.73748 21.95 6.24997 21.05 6.24997H18.75V15C18.75 16.375 17.625 17.5 16.25 17.5H15" stroke="#1531AD" stroke-width="1.5" stroke-linecap="round" stroke-linejoin="round"/>
<path d="M10 27.5C11.3807 27.5 12.5 26.3807 12.5 25C12.5 23.6193 11.3807 22.5 10 22.5C8.61929 22.5 7.5 23.6193 7.5 25C7.5 26.3807 8.61929 27.5 10 27.5Z" stroke="#1531AD" stroke-width="1.5" stroke-linecap="round" stroke-linejoin="round"/>
<path d="M20 27.5C21.3807 27.5 22.5 26.3807 22.5 25C22.5 23.6193 21.3807 22.5 20 22.5C18.6193 22.5 17.5 23.6193 17.5 25C17.5 26.3807 18.6193 27.5 20 27.5Z" stroke="#1531AD" stroke-width="1.5" stroke-linecap="round" stroke-linejoin="round"/>
<path d="M27.5 15V17.5H23.75C23.0625 17.5 22.5 16.9375 22.5 16.25V12.5C22.5 11.8125 23.0625 11.25 23.75 11.25H25.3625L27.5 15Z" stroke="#1531AD" stroke-width="1.5" stroke-linecap="round" stroke-linejoin="round"/>
<path d="M2.5 10H10" stroke="#1531AD" stroke-width="1.5" stroke-linecap="round" stroke-linejoin="round"/>
<path d="M2.5 13.75H7.5" stroke="#1531AD" stroke-width="1.5" stroke-linecap="round" stroke-linejoin="round"/>
<path d="M2.5 17.5H5" stroke="#1531AD" stroke-width="1.5" stroke-linecap="round" stroke-linejoin="round"/>
</svg>
