<svg width="25" height="25" viewBox="0 0 25 25" fill="none" xmlns="http://www.w3.org/2000/svg">
<path d="M21.875 7.29232V17.709C21.875 20.834 20.3125 22.9173 16.6667 22.9173H8.33333C4.6875 22.9173 3.125 20.834 3.125 17.709V7.29232C3.125 4.16732 4.6875 2.08398 8.33333 2.08398H16.6667C20.3125 2.08398 21.875 4.16732 21.875 7.29232Z" stroke="#1531AD" stroke-width="1.5" stroke-miterlimit="10" stroke-linecap="round" stroke-linejoin="round"/>
<path d="M16.1459 2.08398V10.2715C16.1459 10.7298 15.6042 10.959 15.2709 10.6569L12.8543 8.42776C12.6564 8.24026 12.3438 8.24026 12.1459 8.42776L9.72928 10.6569C9.39594 10.959 8.85425 10.7298 8.85425 10.2715V2.08398H16.1459Z" stroke="#1531AD" stroke-width="1.5" stroke-miterlimit="10" stroke-linecap="round" stroke-linejoin="round"/>
<path d="M13.802 14.584H18.2291" stroke="#1531AD" stroke-width="1.5" stroke-miterlimit="10" stroke-linecap="round" stroke-linejoin="round"/>
<path d="M9.375 18.75H18.2292" stroke="#1531AD" stroke-width="1.5" stroke-miterlimit="10" stroke-linecap="round" stroke-linejoin="round"/>
</svg>
