<svg width="33" height="33" viewBox="0 0 33 33" fill="none" xmlns="http://www.w3.org/2000/svg">
<path fill-rule="evenodd" clip-rule="evenodd" d="M27.6988 12.6947L28.6591 13.6547C29.4194 14.4013 29.8329 15.4147 29.8329 16.4813C29.8462 17.548 29.4327 18.5627 28.6858 19.3213C28.6769 19.3311 28.668 19.3397 28.6591 19.3483C28.6547 19.3526 28.6502 19.3569 28.6458 19.3613L27.6988 20.308C27.3253 20.6813 27.1119 21.188 27.1119 21.7227V23.0947C27.1119 25.308 25.3112 27.1093 23.0971 27.1093H21.7233C21.1897 27.1093 20.6829 27.3213 20.3094 27.6947L19.3491 28.6547C18.5621 29.4427 17.5351 29.828 16.508 29.828C15.481 29.828 14.4539 29.4427 13.667 28.6693L12.6933 27.6947C12.3198 27.3213 11.813 27.1093 11.2795 27.1093H9.90563C7.6915 27.1093 5.89085 25.308 5.89085 23.0947V21.7227C5.89085 21.188 5.67744 20.6813 5.30397 20.2947L4.34362 19.348C2.78305 17.7893 2.76971 15.2413 4.33028 13.6693L5.30397 12.6947C5.67744 12.3213 5.89085 11.8147 5.89085 11.268V9.90799C5.89085 7.69465 7.6915 5.89598 9.90563 5.89598H11.2795C11.813 5.89598 12.3198 5.68132 12.6933 5.30798L13.6537 4.34798C15.2142 2.77598 17.7618 2.77598 19.3357 4.33598L20.3094 5.30798C20.6829 5.68132 21.1897 5.89598 21.7233 5.89598H23.0971C25.3112 5.89598 27.1119 7.69465 27.1119 9.90799V11.2827C27.1119 11.8147 27.3253 12.3213 27.6988 12.6947ZM13.0668 21.0947C13.3869 21.0947 13.6803 20.9747 13.8937 20.748L20.7496 13.896C21.2031 13.4427 21.2031 12.6947 20.7496 12.2413C20.2961 11.7893 19.5625 11.7893 19.109 12.2413L12.2532 19.0947C11.7997 19.548 11.7997 20.2947 12.2532 20.748C12.4666 20.9747 12.76 21.0947 13.0668 21.0947ZM18.7622 19.9213C18.7622 20.5747 19.2824 21.0947 19.9359 21.0947C20.5762 21.0947 21.0964 20.5747 21.0964 19.9213C21.0964 19.2827 20.5762 18.7613 19.9359 18.7613C19.2824 18.7613 18.7622 19.2827 18.7622 19.9213ZM13.0801 11.908C13.7204 11.908 14.2405 12.428 14.2405 13.068C14.2405 13.7227 13.7204 14.2413 13.0801 14.2413C12.4399 14.2413 11.9064 13.7227 11.9064 13.068C11.9064 12.428 12.4399 11.908 13.0801 11.908Z" fill="url(#paint0_linear_12863_2279)"/>
<defs>
<linearGradient id="paint0_linear_12863_2279" x1="29.8332" y1="29.828" x2="-1.89663" y2="20.6261" gradientUnits="userSpaceOnUse">
<stop stop-color="#1BAC4B"/>
<stop offset="1" stop-color="#46D375"/>
</linearGradient>
</defs>
</svg>
