<svg width="70" height="14" viewBox="0 0 70 14" fill="none" xmlns="http://www.w3.org/2000/svg">
<path d="M6.03623 0.0522096C13.1676 -0.757356 16.8592 8.04929 11.3307 12.4998C7.00637 15.9813 0.398136 13.0262 0.0159283 7.50713C-0.231567 3.92071 2.43345 0.461187 6.03623 0.0522096ZM10.9684 2.74936H4.02389L3.03182 4.95155H9.97631L10.9684 2.74936ZM10.6551 5.89534H4.80711L3.34928 9.0948L4.70163 11.1921H8.25533L9.1931 9.04132H5.74696L6.23464 8.09333L9.71629 8.04719L10.6541 5.89534H10.6551Z" fill="#969696"/>
<path d="M64.6781 0.337891C64.7293 0.375642 64.5758 0.473168 64.5758 0.49519V4.42766C64.9923 4.28714 65.2153 3.87712 65.6318 3.67473C66.6286 3.19024 68.1451 3.27938 68.9781 4.05853C69.4959 4.54197 69.9994 5.77204 69.9994 6.47255V11.0342H68.2597V6.78715C68.2597 6.72108 68.0755 6.0835 68.0295 5.97444C67.5137 4.76743 65.8324 4.74855 65.0885 5.73849C64.8746 6.02267 64.5768 6.76408 64.5768 7.10175V11.0342H62.8372V0.337891H64.6791H64.6781Z" fill="#969696"/>
<path d="M54.1378 6.20891L48.9189 8.62398C48.8074 8.78128 49.3354 9.19864 49.4603 9.2731C50.8356 10.1015 52.3767 8.94067 53.1759 7.79658L54.5042 8.30309C54.2545 9.56882 52.8444 10.6038 51.6778 10.9772C46.7638 12.5523 44.2874 5.2043 49.3006 3.4027C51.7228 2.53231 53.3714 3.94171 54.1389 6.20891H54.1378ZM50.2216 4.7691C49.3119 4.91277 48.3315 5.74226 48.2261 6.71227C48.2026 6.93249 48.1392 7.11286 48.3581 7.25967L51.9858 5.52938C51.467 4.90858 51.0536 4.63697 50.2216 4.76806V4.7691Z" fill="#969696"/>
<path d="M58.6189 3.30644C59.8121 3.18165 60.9623 3.47842 61.8107 4.37712L60.7167 5.46668C60.5254 5.51597 60.1989 5.19823 59.9677 5.11328C57.8832 4.34776 56.2858 6.5856 57.306 8.47004C58.009 9.76933 59.7476 9.7169 60.8252 8.94928L61.9109 10.0472C61.4361 10.7005 60.3852 11.1557 59.5993 11.2333C54.2289 11.7649 53.6978 3.82029 58.6189 3.30749V3.30644Z" fill="#969696"/>
<path d="M43.5977 1.38647V3.48379H45.6444V5.05678H43.5977V8.67466C43.5977 8.73653 43.784 9.07839 43.8474 9.15285C44.4614 9.86803 45.4786 9.18536 45.542 9.25142L45.9524 10.8234C44.6927 11.181 42.8691 11.332 42.1845 9.91418C42.0955 9.72856 41.8591 9.04169 41.8591 8.88439V5.05678H40.5288V3.48379H41.8591V1.64864C42.3084 1.38647 43.0595 1.4452 43.5988 1.38647H43.5977Z" fill="#969696"/>
<path d="M22.7151 5.9917L17.5033 8.41305C18.5092 10.1255 21.088 9.01394 21.701 7.46821L23.2339 7.99359C22.8164 9.44074 21.2712 10.5691 19.8774 10.8973C15.6859 11.8852 13.2699 6.02211 16.8975 3.64899C19.4364 1.98792 21.9404 3.14459 22.7151 5.9917ZM16.8893 7.04875L20.3041 5.46317C20.6838 5.29749 20.2121 4.88746 19.9941 4.75743C18.6709 3.96674 16.5475 5.43906 16.8893 7.04875Z" fill="#D0D0D0"/>
<path d="M35.5945 3.30438C40.9578 2.8587 41.2883 11.1851 35.9629 11.2322C31.0582 11.2752 30.7665 3.70602 35.5945 3.30438ZM35.8013 4.97595C33.2071 5.16366 33.2153 9.90045 36.3743 9.45163C38.7279 9.1171 38.4036 4.78824 35.8013 4.97595Z" fill="#D0D0D0"/>
<path d="M25.2805 3.48242L27.4786 9.04137L29.6296 3.48242H31.5227L28.4384 11.0191L26.5545 11.0401L23.3362 3.48242H25.2805Z" fill="#D0D0D0"/>
</svg>
