<svg width="34" height="34" viewBox="0 0 34 34" fill="none" xmlns="http://www.w3.org/2000/svg">
<mask id="path-1-inside-1_12863_1787" fill="white">
<path d="M17 24.5C17.2378 24.5 17.4361 24.42 17.595 24.26C17.7539 24.1 17.8333 23.9022 17.8333 23.6667V16.1667C17.8333 15.93 17.7533 15.7322 17.5933 15.5733C17.4333 15.4144 17.235 15.3344 16.9983 15.3333C16.7617 15.3322 16.5639 15.4122 16.405 15.5733C16.2461 15.7344 16.1667 15.9322 16.1667 16.1667V23.6667C16.1667 23.9033 16.2467 24.1011 16.4067 24.26C16.5667 24.4189 16.765 24.4989 17.0017 24.5M17 12.9617C17.2911 12.9617 17.535 12.8633 17.7317 12.6667C17.9283 12.47 18.0261 12.2267 18.025 11.9367C18.0239 11.6467 17.9256 11.4028 17.73 11.205C17.5344 11.0072 17.2911 10.9089 17 10.91C16.7089 10.9111 16.4656 11.0094 16.27 11.205C16.0744 11.4006 15.9761 11.6444 15.975 11.9367C15.9739 12.2289 16.0722 12.4722 16.27 12.6667C16.4678 12.8611 16.7111 12.9594 17 12.9617ZM17.005 32C14.9306 32 12.9806 31.6067 11.155 30.82C9.32944 30.0322 7.74111 28.9633 6.39 27.6133C5.03889 26.2633 3.96944 24.6767 3.18167 22.8533C2.39389 21.03 2 19.0806 2 17.005C2 14.9294 2.39389 12.9794 3.18167 11.155C3.96833 9.32944 5.03556 7.74111 6.38333 6.39C7.73111 5.03889 9.31833 3.96944 11.145 3.18167C12.9717 2.39389 14.9217 2 16.995 2C19.0683 2 21.0183 2.39389 22.845 3.18167C24.6706 3.96833 26.2589 5.03611 27.61 6.385C28.9611 7.73389 30.0306 9.32111 30.8183 11.1467C31.6061 12.9722 32 14.9217 32 16.995C32 19.0683 31.6067 21.0183 30.82 22.845C30.0333 24.6717 28.9644 26.26 27.6133 27.61C26.2622 28.96 24.6756 30.0294 22.8533 30.8183C21.0311 31.6072 19.0817 32.0011 17.005 32ZM17 30.3333C20.7222 30.3333 23.875 29.0417 26.4583 26.4583C29.0417 23.875 30.3333 20.7222 30.3333 17C30.3333 13.2778 29.0417 10.125 26.4583 7.54167C23.875 4.95833 20.7222 3.66667 17 3.66667C13.2778 3.66667 10.125 4.95833 7.54167 7.54167C4.95833 10.125 3.66667 13.2778 3.66667 17C3.66667 20.7222 4.95833 23.875 7.54167 26.4583C10.125 29.0417 13.2778 30.3333 17 30.3333Z"/>
</mask>
<path d="M17 24.5C17.2378 24.5 17.4361 24.42 17.595 24.26C17.7539 24.1 17.8333 23.9022 17.8333 23.6667V16.1667C17.8333 15.93 17.7533 15.7322 17.5933 15.5733C17.4333 15.4144 17.235 15.3344 16.9983 15.3333C16.7617 15.3322 16.5639 15.4122 16.405 15.5733C16.2461 15.7344 16.1667 15.9322 16.1667 16.1667V23.6667C16.1667 23.9033 16.2467 24.1011 16.4067 24.26C16.5667 24.4189 16.765 24.4989 17.0017 24.5M17 12.9617C17.2911 12.9617 17.535 12.8633 17.7317 12.6667C17.9283 12.47 18.0261 12.2267 18.025 11.9367C18.0239 11.6467 17.9256 11.4028 17.73 11.205C17.5344 11.0072 17.2911 10.9089 17 10.91C16.7089 10.9111 16.4656 11.0094 16.27 11.205C16.0744 11.4006 15.9761 11.6444 15.975 11.9367C15.9739 12.2289 16.0722 12.4722 16.27 12.6667C16.4678 12.8611 16.7111 12.9594 17 12.9617ZM17.005 32C14.9306 32 12.9806 31.6067 11.155 30.82C9.32944 30.0322 7.74111 28.9633 6.39 27.6133C5.03889 26.2633 3.96944 24.6767 3.18167 22.8533C2.39389 21.03 2 19.0806 2 17.005C2 14.9294 2.39389 12.9794 3.18167 11.155C3.96833 9.32944 5.03556 7.74111 6.38333 6.39C7.73111 5.03889 9.31833 3.96944 11.145 3.18167C12.9717 2.39389 14.9217 2 16.995 2C19.0683 2 21.0183 2.39389 22.845 3.18167C24.6706 3.96833 26.2589 5.03611 27.61 6.385C28.9611 7.73389 30.0306 9.32111 30.8183 11.1467C31.6061 12.9722 32 14.9217 32 16.995C32 19.0683 31.6067 21.0183 30.82 22.845C30.0333 24.6717 28.9644 26.26 27.6133 27.61C26.2622 28.96 24.6756 30.0294 22.8533 30.8183C21.0311 31.6072 19.0817 32.0011 17.005 32ZM17 30.3333C20.7222 30.3333 23.875 29.0417 26.4583 26.4583C29.0417 23.875 30.3333 20.7222 30.3333 17C30.3333 13.2778 29.0417 10.125 26.4583 7.54167C23.875 4.95833 20.7222 3.66667 17 3.66667C13.2778 3.66667 10.125 4.95833 7.54167 7.54167C4.95833 10.125 3.66667 13.2778 3.66667 17C3.66667 20.7222 4.95833 23.875 7.54167 26.4583C10.125 29.0417 13.2778 30.3333 17 30.3333Z" fill="#1531AD"/>
<path d="M17.8333 23.6667H20.8333H17.8333ZM17 12.9617L16.9769 15.9616L16.9885 15.9617H17V12.9617ZM17.005 32L17.0066 29H17.005V32ZM11.155 30.82L9.96637 33.5745L9.96778 33.5751L11.155 30.82ZM3.18167 11.155L5.93588 12.3442L5.93675 12.3422L3.18167 11.155ZM22.845 3.18167L21.657 5.93641L21.6578 5.93675L22.845 3.18167ZM17 30.3333V27.3333V30.3333ZM17 24.5V27.5C17.9886 27.5 18.9683 27.1346 19.7237 26.3739L17.595 24.26L15.4663 22.1461C15.6577 21.9533 15.9064 21.7782 16.2049 21.6578C16.5002 21.5387 16.7773 21.5 17 21.5V24.5ZM17.595 24.26L19.7237 26.3739C20.4678 25.6246 20.8333 24.6549 20.8333 23.6667H17.8333H14.8333C14.8333 23.4417 14.8726 23.1657 14.9899 22.8735C15.1084 22.5787 15.2796 22.3341 15.4663 22.1461L17.595 24.26ZM17.8333 23.6667H20.8333V16.1667H17.8333H14.8333V23.6667H17.8333ZM17.8333 16.1667H20.8333C20.8333 15.1749 20.465 14.1971 19.7072 13.4446L17.5933 15.5733L15.4794 17.702C15.2881 17.512 15.113 17.2643 14.9922 16.9658C14.8726 16.6701 14.8333 16.3917 14.8333 16.1667H17.8333ZM17.5933 15.5733L19.7072 13.4446C18.9587 12.7013 17.9929 12.338 17.0124 12.3334L16.9983 15.3333L16.9842 18.3333C16.7633 18.3323 16.4912 18.2929 16.2024 18.1764C15.9108 18.0587 15.6674 17.8888 15.4794 17.702L17.5933 15.5733ZM16.9983 15.3333L17.0124 12.3334C16.0095 12.3287 15.0235 12.7017 14.269 13.4668L16.405 15.5733L18.541 17.6799C18.3507 17.8728 18.1008 18.0509 17.7974 18.1736C17.4969 18.2952 17.2135 18.3344 16.9842 18.3333L16.9983 15.3333ZM16.405 15.5733L14.269 13.4668C13.5346 14.2114 13.1667 15.1755 13.1667 16.1667H16.1667H19.1667C19.1667 16.3942 19.1268 16.6701 19.0101 16.9607C18.8925 17.2534 18.7234 17.4949 18.541 17.6799L16.405 15.5733ZM16.1667 16.1667H13.1667V23.6667H16.1667H19.1667V16.1667H16.1667ZM16.1667 23.6667H13.1667C13.1667 24.6585 13.535 25.6362 14.2928 26.3887L16.4067 24.26L18.5206 22.1313C18.7119 22.3213 18.887 22.569 19.0078 22.8676C19.1274 23.1632 19.1667 23.4416 19.1667 23.6667H16.1667ZM16.4067 24.26L14.2928 26.3887C15.0413 27.1321 16.0071 27.4954 16.9876 27.5L17.0017 24.5L17.0158 21.5C17.2367 21.5011 17.5088 21.5405 17.7976 21.657C18.0892 21.7746 18.3325 21.9446 18.5206 22.1313L16.4067 24.26ZM17 12.9617V15.9617C18.0454 15.9617 19.0651 15.5759 19.853 14.788L17.7317 12.6667L15.6103 10.5453C15.7806 10.3751 16.0058 10.2159 16.2794 10.1056C16.5503 9.99634 16.8023 9.96167 17 9.96167V12.9617ZM17.7317 12.6667L19.853 14.788C20.6415 13.9995 21.029 12.9767 21.025 11.9252L18.025 11.9367L15.025 11.9482C15.0243 11.7471 15.0588 11.4919 15.1688 11.2181C15.2798 10.9418 15.4401 10.7156 15.6103 10.5453L17.7317 12.6667ZM18.025 11.9367L21.025 11.9252C21.021 10.8867 20.637 9.87821 19.8633 9.0957L17.73 11.205L15.5967 13.3143C15.4312 13.1469 15.2761 12.9261 15.1681 12.6581C15.061 12.3925 15.0258 12.1445 15.025 11.9482L18.025 11.9367ZM17.73 11.205L19.8633 9.0957C19.0725 8.29595 18.0432 7.906 16.9885 7.91002L17 10.91L17.0114 13.91C16.8105 13.9107 16.5533 13.8761 16.2768 13.7644C15.9975 13.6515 15.7687 13.4882 15.5967 13.3143L17.73 11.205ZM17 10.91L16.9885 7.91002C15.952 7.91398 14.9359 8.29642 14.1487 9.08368L16.27 11.205L18.3913 13.3263C18.2199 13.4977 17.9948 13.6563 17.7232 13.7661C17.4546 13.8746 17.2056 13.9092 17.0114 13.91L17 10.91ZM16.27 11.205L14.1487 9.08368C13.3591 9.87328 12.979 10.8911 12.975 11.9253L15.975 11.9367L18.975 11.9481C18.9742 12.1402 18.9401 12.3881 18.8319 12.6564C18.7225 12.9279 18.5639 13.1538 18.3913 13.3263L16.27 11.205ZM15.975 11.9367L12.975 11.9253C12.971 12.9775 13.3589 14.0117 14.1668 14.8059L16.27 12.6667L18.3732 10.5274C18.5507 10.7019 18.7158 10.9332 18.8294 11.2143C18.9417 11.4921 18.9757 11.7492 18.975 11.9481L15.975 11.9367ZM16.27 12.6667L14.1668 14.8059C14.9451 15.5711 15.9452 15.9536 16.9769 15.9616L17 12.9617L17.0231 9.96175C17.218 9.96325 17.4629 9.99892 17.7249 10.1048C17.9891 10.2116 18.2073 10.3642 18.3732 10.5274L16.27 12.6667ZM17.005 32V29C15.3207 29 13.7765 28.683 12.3422 28.0649L11.155 30.82L9.96778 33.5751C12.1846 34.5304 14.5404 35 17.005 35V32ZM11.155 30.82L12.3436 28.0655C10.8513 27.4215 9.5827 26.5625 8.51045 25.4911L6.39 27.6133L4.26955 29.7355C5.89952 31.3641 7.80758 32.6429 9.96637 33.5745L11.155 30.82ZM6.39 27.6133L8.51045 25.4911C7.4382 24.4198 6.57914 23.1529 5.93562 21.6635L3.18167 22.8533L0.427716 24.0432C1.35975 26.2004 2.63958 28.1069 4.26955 29.7355L6.39 27.6133ZM3.18167 22.8533L5.93562 21.6635C5.31744 20.2327 5 18.6901 5 17.005H2H-1C-1 19.471 -0.529663 21.8273 0.427716 24.0432L3.18167 22.8533ZM2 17.005H5C5 15.3199 5.31744 13.7765 5.93588 12.3442L3.18167 11.155L0.427452 9.96576C-0.529663 12.1824 -1 14.539 -1 17.005H2ZM3.18167 11.155L5.93675 12.3422C6.58 10.8495 7.43782 9.58079 8.50727 8.5087L6.38333 6.39L4.25939 4.2713C2.63329 5.90143 1.35666 7.80941 0.426579 9.96778L3.18167 11.155ZM6.38333 6.39L8.50727 8.5087C9.5749 7.43843 10.8408 6.57996 12.333 5.93641L11.145 3.18167L9.95698 0.426926C7.79588 1.35893 5.88732 2.63935 4.25939 4.2713L6.38333 6.39ZM11.145 3.18167L12.333 5.93641C13.7687 5.31727 15.3126 5 16.995 5V2V-1C14.5307 -1 12.1747 -0.529487 9.95698 0.426926L11.145 3.18167ZM16.995 2V5C18.6774 5 20.2213 5.31727 21.657 5.93641L22.845 3.18167L24.033 0.426926C21.8153 -0.529488 19.4593 -1 16.995 -1V2ZM22.845 3.18167L21.6578 5.93675C23.15 6.57978 24.4184 7.43781 25.4904 8.50807L27.61 6.385L29.7296 4.26193C28.0994 2.63441 26.1911 1.35688 24.0322 0.426579L22.845 3.18167ZM27.61 6.385L25.4904 8.50807C26.5615 9.57741 27.4203 10.8439 28.0639 12.3353L30.8183 11.1467L33.5728 9.95803C32.6408 7.7983 31.3607 5.89036 29.7296 4.26193L27.61 6.385ZM30.8183 11.1467L28.0639 12.3353C28.6827 13.7695 29 15.3126 29 16.995H32H35C35 14.5307 34.5295 12.175 33.5728 9.95803L30.8183 11.1467ZM32 16.995H29C29 18.678 28.6831 20.2224 28.0646 21.6584L30.82 22.845L33.5753 24.0316C34.5303 21.8142 35 19.4587 35 16.995H32ZM30.82 22.845L28.0646 21.6584C27.4221 23.1504 26.5639 24.4177 25.4929 25.4878L27.6133 27.61L29.7338 29.7322C31.365 28.1023 32.6446 26.1929 33.5753 24.0316L30.82 22.845ZM27.6133 27.61L25.4929 25.4878C24.4194 26.5604 23.1512 27.4203 21.6615 28.0653L22.8533 30.8183L24.0452 33.5714C26.1999 32.6386 28.105 31.3596 29.7338 29.7322L27.6133 27.61ZM22.8533 30.8183L21.6615 28.0653C20.2332 28.6836 18.6919 29.0009 17.0066 29L17.005 32L17.0034 35C19.4714 35.0013 21.829 34.5309 24.0452 33.5714L22.8533 30.8183ZM17 30.3333V33.3333C21.5011 33.3333 25.4219 31.7374 28.5797 28.5797L26.4583 26.4583L24.337 24.337C22.3281 26.346 19.9434 27.3333 17 27.3333V30.3333ZM26.4583 26.4583L28.5797 28.5797C31.7374 25.4219 33.3333 21.5011 33.3333 17H30.3333H27.3333C27.3333 19.9434 26.346 22.3281 24.337 24.337L26.4583 26.4583ZM30.3333 17H33.3333C33.3333 12.4989 31.7374 8.57807 28.5797 5.42035L26.4583 7.54167L24.337 9.66299C26.346 11.6719 27.3333 14.0566 27.3333 17H30.3333ZM26.4583 7.54167L28.5797 5.42035C25.4219 2.26262 21.5011 0.666667 17 0.666667V3.66667V6.66667C19.9434 6.66667 22.3281 7.65404 24.337 9.66299L26.4583 7.54167ZM17 3.66667V0.666667C12.4989 0.666667 8.57807 2.26262 5.42035 5.42035L7.54167 7.54167L9.66299 9.66299C11.6719 7.65404 14.0566 6.66667 17 6.66667V3.66667ZM7.54167 7.54167L5.42035 5.42035C2.26262 8.57807 0.666667 12.4989 0.666667 17H3.66667L6.66667 17C6.66667 14.0566 7.65404 11.6719 9.66299 9.66299L7.54167 7.54167ZM3.66667 17H0.666667C0.666667 21.5011 2.26262 25.4219 5.42035 28.5797L7.54167 26.4583L9.66299 24.337C7.65404 22.3281 6.66667 19.9434 6.66667 17L3.66667 17ZM7.54167 26.4583L5.42035 28.5797C8.57807 31.7374 12.4989 33.3333 17 33.3333V30.3333V27.3333C14.0566 27.3333 11.6719 26.346 9.66299 24.337L7.54167 26.4583Z" fill="#1531AD" mask="url(#path-1-inside-1_12863_1787)"/>
</svg>
