<svg width="18" height="18" viewBox="0 0 18 18" fill="none" xmlns="http://www.w3.org/2000/svg">
<path fill-rule="evenodd" clip-rule="evenodd" d="M14.7552 2.2675C13.9102 1.40417 12.7052 1.08667 11.526 1.42167C11.4462 1.44729 11.362 1.45659 11.2785 1.44902C11.195 1.44144 11.1139 1.41714 11.04 1.37756C10.9661 1.33799 10.9009 1.28394 10.8483 1.21865C10.7957 1.15336 10.7568 1.07815 10.7338 0.997504C10.7109 0.916858 10.7044 0.832423 10.7148 0.749225C10.7252 0.666027 10.7522 0.585768 10.7942 0.513224C10.8363 0.44068 10.8925 0.377336 10.9595 0.326961C11.0265 0.276587 11.103 0.240212 11.1844 0.220003C12.7985 -0.239997 14.4794 0.199169 15.6485 1.39334C15.7072 1.45172 15.7537 1.52118 15.7854 1.59769C15.817 1.6742 15.8331 1.75623 15.8328 1.83902C15.8325 1.92181 15.8157 2.00371 15.7834 2.07996C15.7512 2.15621 15.7041 2.22529 15.6449 2.28319C15.5857 2.3411 15.5157 2.38667 15.4387 2.41726C15.3618 2.44785 15.2795 2.46285 15.1968 2.46139C15.114 2.45993 15.0323 2.44204 14.9565 2.40875C14.8807 2.37547 14.8123 2.32746 14.7552 2.2675ZM8.32519 1.75584C8.14686 1.45 7.62686 1.26417 7.09936 1.56667C6.57269 1.86667 6.48019 2.3975 6.65602 2.6975L8.76019 6.3075C8.80509 6.37848 8.83522 6.45777 8.84879 6.54065C8.86236 6.62352 8.85909 6.70829 8.83917 6.78987C8.81925 6.87146 8.7831 6.94819 8.73286 7.01549C8.68263 7.08279 8.61935 7.13928 8.54679 7.18157C8.47424 7.22387 8.39391 7.25112 8.3106 7.26168C8.22728 7.27224 8.14269 7.2659 8.06188 7.24304C7.98107 7.22018 7.9057 7.18127 7.84026 7.12863C7.77482 7.07599 7.72067 7.0107 7.68102 6.93667L5.57519 3.3275L4.87436 2.12417C4.69602 1.81834 4.17602 1.6325 3.64852 1.935C3.12186 2.235 3.02936 2.76584 3.20436 3.06584L6.36186 8.48C6.40322 8.55092 6.43022 8.62928 6.4413 8.71063C6.45238 8.79198 6.44732 8.87471 6.42643 8.9541C6.40554 9.0335 6.36921 9.108 6.31953 9.17335C6.26984 9.23871 6.20777 9.29364 6.13686 9.335C6.06594 9.37637 5.98757 9.40336 5.90623 9.41444C5.82488 9.42552 5.74215 9.42047 5.66276 9.39958C5.58336 9.37869 5.50886 9.34236 5.44351 9.29267C5.37815 9.24299 5.32322 9.18092 5.28186 9.11L3.87852 6.70334C3.70019 6.3975 3.18102 6.21167 2.65269 6.51417C2.12686 6.81417 2.03352 7.34417 2.20936 7.645L5.36602 13.0592C6.70769 15.3583 10.016 16.1042 12.8219 14.5008C15.6252 12.8983 16.6219 9.6975 15.2844 7.40334L13.1794 3.79417C13.001 3.48834 12.481 3.3025 11.9535 3.60417C11.4269 3.905 11.3352 4.435 11.5102 4.73584L12.9135 7.14167C12.9552 7.21302 12.9824 7.29192 12.9934 7.37383C13.0044 7.45573 12.999 7.53901 12.9776 7.61883C12.9563 7.69866 12.9192 7.77345 12.8688 7.83887C12.8183 7.9043 12.7553 7.95907 12.6835 8C11.3977 8.73334 11.0044 10.1542 11.5669 11.1192C11.6082 11.1901 11.6352 11.2685 11.6463 11.3498C11.6574 11.4311 11.6523 11.5139 11.6314 11.5933C11.6105 11.6727 11.5742 11.7472 11.5245 11.8125C11.4748 11.8779 11.4128 11.9328 11.3419 11.9742C11.2709 12.0155 11.1926 12.0425 11.1112 12.0536C11.0299 12.0647 10.9472 12.0596 10.8678 12.0387C10.7884 12.0179 10.7139 11.9815 10.6485 11.9318C10.5832 11.8822 10.5282 11.8201 10.4869 11.7492C9.60352 10.235 10.1602 8.36334 11.5394 7.26834L8.32519 1.75584ZM10.6002 3.17417L9.40602 1.1275C8.80936 0.104169 7.47019 -0.0841641 6.48019 0.482503C6.17839 0.653375 5.91847 0.889376 5.71936 1.17334C5.05269 0.439169 3.90436 0.350003 3.02852 0.850003C2.03686 1.4175 1.52602 2.66834 2.12602 3.69667L2.96102 5.12917C2.63469 5.16513 2.3191 5.26721 2.03352 5.42917C1.04102 5.99584 0.530189 7.2475 1.13019 8.27584L4.28769 13.69C6.04602 16.7067 10.1744 17.455 13.4427 15.5867C16.7127 13.7183 18.1269 9.79584 16.3652 6.77417L14.2585 3.16584C13.6619 2.1425 12.3227 1.95417 11.3327 2.52C11.041 2.68667 10.791 2.9125 10.5985 3.17417M2.67852 13.8825C2.74943 13.8411 2.8278 13.8141 2.90915 13.803C2.9905 13.7919 3.07324 13.797 3.15264 13.8179C3.23204 13.8388 3.30654 13.8751 3.3719 13.9248C3.43725 13.9745 3.49217 14.0366 3.53352 14.1075C4.22269 15.2892 5.27519 16.1825 6.57519 16.7625C6.72658 16.8301 6.84491 16.9551 6.90414 17.11C6.96337 17.2649 6.95865 17.4369 6.89102 17.5883C6.82339 17.7397 6.69839 17.8581 6.54352 17.9173C6.38864 17.9765 6.21658 17.9718 6.06519 17.9042C4.55602 17.23 3.28936 16.1708 2.45352 14.7375C2.41213 14.6666 2.38512 14.5882 2.37403 14.5069C2.36294 14.4255 2.36799 14.3428 2.38888 14.2634C2.40978 14.184 2.44611 14.1095 2.49581 14.0441C2.54551 13.9788 2.60759 13.9239 2.67852 13.8825Z" fill="#1531AD"/>
</svg>
