<svg width="25" height="25" viewBox="0 0 25 25" fill="none" xmlns="http://www.w3.org/2000/svg">
<path d="M17.7083 19.198H13.5416L8.90616 22.2813C8.21866 22.7396 7.29159 22.2501 7.29159 21.4167V19.198C4.16659 19.198 2.08325 17.1146 2.08325 13.9896V7.73958C2.08325 4.61458 4.16659 2.53125 7.29159 2.53125H17.7083C20.8333 2.53125 22.9166 4.61458 22.9166 7.73958V13.9896C22.9166 17.1146 20.8333 19.198 17.7083 19.198Z" stroke="#1531AD" stroke-width="1.5" stroke-miterlimit="10" stroke-linecap="round" stroke-linejoin="round"/>
<path d="M12.5001 11.834V11.6153C12.5001 10.9069 12.9377 10.5319 13.3752 10.2298C13.8022 9.93817 14.2293 9.56319 14.2293 8.87569C14.2293 7.91735 13.4585 7.14648 12.5001 7.14648C11.5418 7.14648 10.771 7.91735 10.771 8.87569" stroke="#1531AD" stroke-width="1.5" stroke-linecap="round" stroke-linejoin="round"/>
<path d="M12.4954 14.3236H12.5048" stroke="#1531AD" stroke-width="1.5" stroke-linecap="round" stroke-linejoin="round"/>
</svg>
