<svg width="25" height="25" viewBox="0 0 25 25" fill="none" xmlns="http://www.w3.org/2000/svg">
<path d="M20.3124 13.0202C20.3124 11.5827 21.4791 10.416 22.9166 10.416V9.37435C22.9166 5.20768 21.8749 4.16602 17.7083 4.16602H7.29159C3.12492 4.16602 2.08325 5.20768 2.08325 9.37435V9.89518C3.52075 9.89518 4.68742 11.0618 4.68742 12.4993C4.68742 13.9368 3.52075 15.1035 2.08325 15.1035V15.6243C2.08325 19.791 3.12492 20.8327 7.29159 20.8327H17.7083C21.8749 20.8327 22.9166 19.791 22.9166 15.6243C21.4791 15.6243 20.3124 14.4577 20.3124 13.0202Z" stroke="#1531AD" stroke-width="1.5" stroke-linecap="round" stroke-linejoin="round"/>
<path d="M9.375 15.3652L15.625 9.11523" stroke="#1531AD" stroke-width="1.5" stroke-linecap="round" stroke-linejoin="round"/>
<path d="M15.6194 15.3646H15.6287" stroke="#1531AD" stroke-width="2" stroke-linecap="round" stroke-linejoin="round"/>
<path d="M9.36936 9.63607H9.37872" stroke="#1531AD" stroke-width="2" stroke-linecap="round" stroke-linejoin="round"/>
</svg>
