<svg width="17" height="17" viewBox="0 0 17 17" fill="none" xmlns="http://www.w3.org/2000/svg">
<path fill-rule="evenodd" clip-rule="evenodd" d="M2.47949 15.0517H3.55616C4.46283 15.0517 4.96574 15.0517 5.46158 14.8463C5.92553 14.6551 6.25845 14.3257 6.87116 13.7194L6.94199 13.6485L13.9262 6.65728C14.6132 5.9702 14.9957 5.5877 15.0453 5.02103C15.0524 4.92186 15.0524 4.81561 15.0453 4.72353C14.9901 4.16182 14.6217 3.78995 13.9616 3.1227L13.9191 3.0802C13.2249 2.38603 12.8424 2.00353 12.2687 1.95395C12.1743 1.94764 12.0797 1.94764 11.9853 1.95395C11.4045 2.00353 11.022 2.38603 10.3349 3.0802L9.19945 4.21636L9.17537 4.24045L3.35074 10.0651L3.30612 10.109C2.69695 10.7182 2.35412 11.061 2.15366 11.5448C1.94824 12.0335 1.94824 12.5364 1.94824 13.4431V14.5198C1.94824 14.8102 2.18908 15.0517 2.47949 15.0517ZM9.55574 5.34686L4.09449 10.8152C3.50658 11.396 3.24449 11.6652 3.12408 11.9556C3.00366 12.246 3.00366 12.6498 3.00366 13.4431V13.9885H3.54908C4.34949 13.9885 4.74616 13.9885 5.05074 13.8681C5.33408 13.7477 5.61033 13.4785 6.15574 12.926L11.6453 7.43645L9.55574 5.34686ZM10.3066 4.59603L12.3962 6.68561L13.1682 5.91353C13.6499 5.43186 13.9687 5.11311 13.9828 4.91478V4.82978C13.9616 4.62436 13.6428 4.30561 13.1612 3.82395C12.6795 3.34228 12.3607 3.02353 12.1695 3.00228H12.0703C11.8748 3.01645 11.583 3.31182 11.1006 3.80128L11.0787 3.82324L10.3066 4.59603Z" fill="#797979"/>
</svg>
