<svg width="40" height="40" viewBox="0 0 40 40" fill="none" xmlns="http://www.w3.org/2000/svg">
<path d="M19.9999 33.6004C12.4799 33.6004 6.3999 27.5204 6.3999 20.0004C6.3999 12.4804 12.4799 6.40039 19.9999 6.40039C27.5199 6.40039 33.5999 12.4804 33.5999 20.0004C33.5999 27.5204 27.5199 33.6004 19.9999 33.6004ZM19.9999 8.00039C13.3599 8.00039 7.9999 13.3604 7.9999 20.0004C7.9999 26.6404 13.3599 32.0004 19.9999 32.0004C26.6399 32.0004 31.9999 26.6404 31.9999 20.0004C31.9999 13.3604 26.6399 8.00039 19.9999 8.00039Z" fill="#1531AD"/>
<path d="M12.7998 19.1992H27.1998V20.7992H12.7998V19.1992Z" fill="#1531AD"/>
<path d="M19.2002 12.8008H20.8002V27.2008H19.2002V12.8008Z" fill="#1531AD"/>
</svg>
