<svg width="30" height="30" viewBox="0 0 30 30" fill="none" xmlns="http://www.w3.org/2000/svg">
<path d="M27.5 10.65V4.975C27.5 3.2125 26.7 2.5 24.7125 2.5H19.6625C17.675 2.5 16.875 3.2125 16.875 4.975V10.6375C16.875 12.4125 17.675 13.1125 19.6625 13.1125H24.7125C26.7 13.125 27.5 12.4125 27.5 10.65Z" stroke="#B1B1B1" stroke-width="1.5" stroke-linecap="round" stroke-linejoin="round"/>
<path d="M27.5 24.7125V19.6625C27.5 17.675 26.7 16.875 24.7125 16.875H19.6625C17.675 16.875 16.875 17.675 16.875 19.6625V24.7125C16.875 26.7 17.675 27.5 19.6625 27.5H24.7125C26.7 27.5 27.5 26.7 27.5 24.7125Z" stroke="#B1B1B1" stroke-width="1.5" stroke-linecap="round" stroke-linejoin="round"/>
<path d="M13.125 10.65V4.975C13.125 3.2125 12.325 2.5 10.3375 2.5H5.28747C3.29997 2.5 2.49997 3.2125 2.49997 4.975V10.6375C2.49997 12.4125 3.29997 13.1125 5.28747 13.1125H10.3375C12.325 13.125 13.125 12.4125 13.125 10.65Z" stroke="#B1B1B1" stroke-width="1.5" stroke-linecap="round" stroke-linejoin="round"/>
<path d="M13.125 24.7125V19.6625C13.125 17.675 12.325 16.875 10.3375 16.875H5.28747C3.29997 16.875 2.49997 17.675 2.49997 19.6625V24.7125C2.49997 26.7 3.29997 27.5 5.28747 27.5H10.3375C12.325 27.5 13.125 26.7 13.125 24.7125Z" stroke="#B1B1B1" stroke-width="1.5" stroke-linecap="round" stroke-linejoin="round"/>
</svg>
