<svg width="21" height="21" viewBox="0 0 21 21" fill="none" xmlns="http://www.w3.org/2000/svg">
<path d="M4.125 13.5H3.5C2.11458 13.5 1 12.3854 1 11V3.5C1 2.11458 2.11458 1 3.5 1H11C12.3854 1 13.5 2.11458 13.5 3.5V4.125M9.75 7.25H17.25C17.913 7.25 18.5489 7.51339 19.0178 7.98223C19.4866 8.45107 19.75 9.08696 19.75 9.75V17.25C19.75 17.913 19.4866 18.5489 19.0178 19.0178C18.5489 19.4866 17.913 19.75 17.25 19.75H9.75C9.08696 19.75 8.45107 19.4866 7.98223 19.0178C7.51339 18.5489 7.25 17.913 7.25 17.25V9.75C7.25 9.42169 7.31466 9.09661 7.4403 8.79329C7.56594 8.48998 7.75009 8.21438 7.98223 7.98223C8.21438 7.75009 8.48998 7.56594 8.79329 7.4403C9.09661 7.31466 9.42169 7.25 9.75 7.25Z" stroke="#1531AD" stroke-width="2" stroke-miterlimit="10" stroke-linecap="round" stroke-linejoin="round"/>
</svg>
