<svg width="25" height="25" viewBox="0 0 25 25" fill="none" xmlns="http://www.w3.org/2000/svg">
<path d="M15.6249 2.08398V12.5007C15.6249 13.6465 14.6874 14.584 13.5416 14.584H2.08325V6.25065C2.08325 3.94857 3.94784 2.08398 6.24992 2.08398H15.6249Z" stroke="#1531AD" stroke-width="1.5" stroke-linecap="round" stroke-linejoin="round"/>
<path d="M22.9166 14.584V17.709C22.9166 19.4382 21.5208 20.834 19.7916 20.834H18.7499C18.7499 19.6882 17.8124 18.7507 16.6666 18.7507C15.5208 18.7507 14.5833 19.6882 14.5833 20.834H10.4166C10.4166 19.6882 9.47909 18.7507 8.33325 18.7507C7.18742 18.7507 6.24992 19.6882 6.24992 20.834H5.20825C3.47909 20.834 2.08325 19.4382 2.08325 17.709V14.584H13.5416C14.6874 14.584 15.6249 13.6465 15.6249 12.5007V5.20898H17.5416C18.2916 5.20898 18.9791 5.61524 19.3541 6.26108L21.1353 9.37565H19.7916C19.2187 9.37565 18.7499 9.8444 18.7499 10.4173V13.5423C18.7499 14.1152 19.2187 14.584 19.7916 14.584H22.9166Z" stroke="#1531AD" stroke-width="1.5" stroke-linecap="round" stroke-linejoin="round"/>
<path d="M8.33333 22.9167C9.48393 22.9167 10.4167 21.9839 10.4167 20.8333C10.4167 19.6827 9.48393 18.75 8.33333 18.75C7.18274 18.75 6.25 19.6827 6.25 20.8333C6.25 21.9839 7.18274 22.9167 8.33333 22.9167Z" stroke="#1531AD" stroke-width="1.5" stroke-linecap="round" stroke-linejoin="round"/>
<path d="M16.6666 22.9167C17.8172 22.9167 18.7499 21.9839 18.7499 20.8333C18.7499 19.6827 17.8172 18.75 16.6666 18.75C15.516 18.75 14.5833 19.6827 14.5833 20.8333C14.5833 21.9839 15.516 22.9167 16.6666 22.9167Z" stroke="#1531AD" stroke-width="1.5" stroke-linecap="round" stroke-linejoin="round"/>
<path d="M22.9167 12.5V14.5833H19.7917C19.2187 14.5833 18.75 14.1146 18.75 13.5417V10.4167C18.75 9.84375 19.2187 9.375 19.7917 9.375H21.1354L22.9167 12.5Z" stroke="#1531AD" stroke-width="1.5" stroke-linecap="round" stroke-linejoin="round"/>
</svg>
