<svg width="77" height="76" viewBox="0 0 77 76" fill="none" xmlns="http://www.w3.org/2000/svg">
<path d="M27.92 39.96V42.552H20.792V39.96H27.92ZM28.1056 36.48V34.2L28.4896 34.176C30.9856 34.008 32.2336 33.144 32.7136 30.912H35.2816V48H32.0416V36.48H28.1056ZM37.6715 39.456C37.6715 34.896 39.2315 30.528 44.5115 30.528C49.8155 30.528 51.3755 34.872 51.3755 39.456C51.3755 44.04 49.8155 48.384 44.5115 48.384C39.2315 48.384 37.6715 44.04 37.6715 39.456ZM44.5115 33.264C42.2075 33.264 41.0555 35.328 41.0555 39.456C41.0555 43.584 42.2075 45.648 44.5115 45.648C46.8395 45.648 47.9915 43.584 47.9915 39.456C47.9915 35.328 46.8395 33.264 44.5115 33.264Z" fill="#FFA9A9"/>
<path d="M44.9786 6.34346L51.5779 19.4736C52.4778 21.3014 54.8775 23.0546 56.9023 23.3903L68.8635 25.3673C76.5127 26.6356 78.3124 32.1562 72.8006 37.6022L63.5016 46.853C61.9268 48.4197 61.0644 51.4411 61.5518 53.6046L64.214 65.0562C66.3138 74.1205 61.4768 77.6269 53.4152 72.8896L42.2039 66.2872C40.1792 65.0935 36.842 65.0935 34.7798 66.2872L23.5685 72.8896C15.5444 77.6269 10.6699 74.0832 12.7697 65.0562L15.4319 53.6046C15.9193 51.4411 15.0569 48.4197 13.4821 46.853L4.18314 37.6022C-1.29125 32.1562 0.471056 26.6356 8.12021 25.3673L20.0814 23.3903C22.0687 23.0546 24.4684 21.3014 25.3683 19.4736L31.9676 6.34346C35.5672 -0.781153 41.4165 -0.781153 44.9786 6.34346Z" stroke="#FFA9A9" stroke-width="2" stroke-linecap="round" stroke-linejoin="round"/>
</svg>
