<svg width="77" height="76" viewBox="0 0 77 76" fill="none" xmlns="http://www.w3.org/2000/svg">
<path d="M20.792 38.16H24.944V34.008H27.752V38.16H31.88V40.752H27.752V44.88H24.944V40.752H20.792V38.16ZM32.9806 36.48V34.2L33.3646 34.176C35.8606 34.008 37.1086 33.144 37.5886 30.912H40.1566V48H36.9166V36.48H32.9806ZM42.5465 39.456C42.5465 34.896 44.1065 30.528 49.3865 30.528C54.6905 30.528 56.2505 34.872 56.2505 39.456C56.2505 44.04 54.6905 48.384 49.3865 48.384C44.1065 48.384 42.5465 44.04 42.5465 39.456ZM49.3865 33.264C47.0825 33.264 45.9305 35.328 45.9305 39.456C45.9305 43.584 47.0825 45.648 49.3865 45.648C51.7145 45.648 52.8665 43.584 52.8665 39.456C52.8665 35.328 51.7145 33.264 49.3865 33.264Z" fill="#00CE4F"/>
<path d="M44.9786 6.34346L51.5779 19.4736C52.4778 21.3014 54.8775 23.0546 56.9023 23.3903L68.8635 25.3673C76.5127 26.6356 78.3124 32.1562 72.8006 37.6022L63.5016 46.853C61.9268 48.4197 61.0644 51.4411 61.5518 53.6046L64.214 65.0562C66.3138 74.1205 61.4768 77.6269 53.4152 72.8896L42.2039 66.2872C40.1792 65.0935 36.842 65.0935 34.7798 66.2872L23.5685 72.8896C15.5444 77.6269 10.6699 74.0832 12.7697 65.0562L15.4319 53.6046C15.9193 51.4411 15.0569 48.4197 13.4821 46.853L4.18314 37.6022C-1.29125 32.1562 0.471056 26.6356 8.12021 25.3673L20.0814 23.3903C22.0687 23.0546 24.4684 21.3014 25.3683 19.4736L31.9676 6.34346C35.5672 -0.781153 41.4165 -0.781153 44.9786 6.34346Z" stroke="#00CE4F" stroke-width="2" stroke-linecap="round" stroke-linejoin="round"/>
</svg>
