<svg width="30" height="30" viewBox="0 0 30 30" fill="none" xmlns="http://www.w3.org/2000/svg">
<path d="M17.1624 4.38828L19.3624 8.78828C19.6624 9.40078 20.4624 9.98828 21.1374 10.1008L25.1249 10.7633C27.6749 11.1883 28.2749 13.0383 26.4374 14.8633L23.3374 17.9633C22.8124 18.4883 22.5249 19.5008 22.6874 20.2258L23.5749 24.0633C24.2749 27.1008 22.6624 28.2758 19.9749 26.6883L16.2374 24.4758C15.5624 24.0758 14.4499 24.0758 13.7624 24.4758L10.0249 26.6883C7.34989 28.2758 5.72489 27.0883 6.42489 24.0633L7.31239 20.2258C7.47489 19.5008 7.18739 18.4883 6.66239 17.9633L3.56239 14.8633C1.73739 13.0383 2.32489 11.1883 4.87489 10.7633L8.86239 10.1008C9.52489 9.98828 10.3249 9.40078 10.6249 8.78828L12.8249 4.38828C14.0249 2.00078 15.9749 2.00078 17.1624 4.38828Z" stroke="#1531AD" stroke-width="1.5" stroke-linecap="round" stroke-linejoin="round"/>
</svg>
