<svg width="30" height="30" viewBox="0 0 30 30" fill="none" xmlns="http://www.w3.org/2000/svg">
<path d="M15.1499 15.975C15.0624 15.9625 14.9499 15.9625 14.8499 15.975C12.6499 15.9 10.8999 14.1 10.8999 11.8875C10.8999 9.62498 12.7249 7.78748 14.9999 7.78748C17.2624 7.78748 19.0999 9.62498 19.0999 11.8875C19.0874 14.1 17.3499 15.9 15.1499 15.975Z" stroke="#B1B1B1" stroke-width="1.5" stroke-linecap="round" stroke-linejoin="round"/>
<path d="M23.425 24.225C21.2 26.2625 18.25 27.5 15 27.5C11.75 27.5 8.80001 26.2625 6.57501 24.225C6.70001 23.05 7.45001 21.9 8.78751 21C12.2125 18.725 17.8125 18.725 21.2125 21C22.55 21.9 23.3 23.05 23.425 24.225Z" stroke="#B1B1B1" stroke-width="1.5" stroke-linecap="round" stroke-linejoin="round"/>
<path d="M15 27.5C21.9035 27.5 27.5 21.9036 27.5 15C27.5 8.09644 21.9035 2.5 15 2.5C8.09641 2.5 2.49997 8.09644 2.49997 15C2.49997 21.9036 8.09641 27.5 15 27.5Z" stroke="#B1B1B1" stroke-width="1.5" stroke-linecap="round" stroke-linejoin="round"/>
</svg>
