<svg width="25" height="25" viewBox="0 0 25 25" fill="none" xmlns="http://www.w3.org/2000/svg">
<path d="M17.7083 10.4173H19.7916C21.8749 10.4173 22.9166 9.37565 22.9166 7.29232V5.20898C22.9166 3.12565 21.8749 2.08398 19.7916 2.08398H17.7083C15.6249 2.08398 14.5833 3.12565 14.5833 5.20898V7.29232C14.5833 9.37565 15.6249 10.4173 17.7083 10.4173Z" stroke="#1531AD" stroke-width="1.5" stroke-miterlimit="10" stroke-linecap="round" stroke-linejoin="round"/>
<path d="M5.20825 22.9173H7.29159C9.37492 22.9173 10.4166 21.8757 10.4166 19.7923V17.709C10.4166 15.6257 9.37492 14.584 7.29159 14.584H5.20825C3.12492 14.584 2.08325 15.6257 2.08325 17.709V19.7923C2.08325 21.8757 3.12492 22.9173 5.20825 22.9173Z" stroke="#1531AD" stroke-width="1.5" stroke-miterlimit="10" stroke-linecap="round" stroke-linejoin="round"/>
<path d="M6.24992 10.4173C8.55111 10.4173 10.4166 8.55184 10.4166 6.25065C10.4166 3.94946 8.55111 2.08398 6.24992 2.08398C3.94873 2.08398 2.08325 3.94946 2.08325 6.25065C2.08325 8.55184 3.94873 10.4173 6.24992 10.4173Z" stroke="#1531AD" stroke-width="1.5" stroke-miterlimit="10" stroke-linecap="round" stroke-linejoin="round"/>
<path d="M18.7499 22.9173C21.0511 22.9173 22.9166 21.0518 22.9166 18.7507C22.9166 16.4495 21.0511 14.584 18.7499 14.584C16.4487 14.584 14.5833 16.4495 14.5833 18.7507C14.5833 21.0518 16.4487 22.9173 18.7499 22.9173Z" stroke="#1531AD" stroke-width="1.5" stroke-miterlimit="10" stroke-linecap="round" stroke-linejoin="round"/>
</svg>
