<svg width="25" height="25" viewBox="0 0 25 25" fill="none" xmlns="http://www.w3.org/2000/svg">
<path d="M2.0835 13.4166V11.5832C2.0835 10.4999 2.96891 9.60408 4.06266 9.60408C5.94808 9.60408 6.71891 8.27075 5.771 6.63533C5.22933 5.69783 5.55225 4.47908 6.50016 3.93741L8.30225 2.90616C9.12516 2.41658 10.1877 2.70825 10.6772 3.53116L10.7918 3.72908C11.7293 5.3645 13.271 5.3645 14.2189 3.72908L14.3335 3.53116C14.8231 2.70825 15.8856 2.41658 16.7085 2.90616L18.5106 3.93741C19.4585 4.47908 19.7814 5.69783 19.2397 6.63533C18.2918 8.27075 19.0627 9.60408 20.9481 9.60408C22.0314 9.60408 22.9272 10.4895 22.9272 11.5832V13.4166C22.9272 14.4999 22.0418 15.3957 20.9481 15.3957C19.0627 15.3957 18.2918 16.7291 19.2397 18.3645C19.7814 19.3124 19.4585 20.5207 18.5106 21.0624L16.7085 22.0937C15.8856 22.5832 14.8231 22.2916 14.3335 21.4687L14.2189 21.2707C13.2814 19.6353 11.7397 19.6353 10.7918 21.2707L10.6772 21.4687C10.1877 22.2916 9.12516 22.5832 8.30225 22.0937L6.50016 21.0624C5.55225 20.5207 5.22933 19.302 5.771 18.3645C6.71891 16.7291 5.94808 15.3957 4.06266 15.3957C2.96891 15.3957 2.0835 14.4999 2.0835 13.4166Z" stroke="#1531AD" stroke-width="1.5" stroke-miterlimit="10" stroke-linecap="round" stroke-linejoin="round"/>
<path d="M12.5 12.0201C13.6064 12.0201 14.5032 11.1232 14.5032 10.0169C14.5032 8.91054 13.6064 8.01367 12.5 8.01367C11.3937 8.01367 10.4968 8.91054 10.4968 10.0169C10.4968 11.1232 11.3937 12.0201 12.5 12.0201Z" stroke="#1531AD" stroke-width="1.5" stroke-linecap="round" stroke-linejoin="round"/>
<path d="M15.9416 16.988C15.9416 15.4375 14.3991 14.1835 12.5001 14.1835C10.6011 14.1835 9.05859 15.4375 9.05859 16.988" stroke="#1531AD" stroke-width="1.5" stroke-linecap="round" stroke-linejoin="round"/>
</svg>
