<svg width="34" height="34" viewBox="0 0 34 34" fill="none" xmlns="http://www.w3.org/2000/svg">
<path d="M27.6252 17.7084C27.6252 15.7534 29.2118 14.1667 31.1668 14.1667V12.75C31.1668 7.08335 29.7502 5.66669 24.0835 5.66669H9.91683C4.25016 5.66669 2.8335 7.08335 2.8335 12.75V13.4584C4.7885 13.4584 6.37516 15.045 6.37516 17C6.37516 18.955 4.7885 20.5417 2.8335 20.5417V21.25C2.8335 26.9167 4.25016 28.3334 9.91683 28.3334H24.0835C29.7502 28.3334 31.1668 26.9167 31.1668 21.25C29.2118 21.25 27.6252 19.6634 27.6252 17.7084Z" stroke="#1531AD" stroke-width="1.5" stroke-linecap="round" stroke-linejoin="round"/>
<path d="M12.75 20.8958L21.25 12.3958" stroke="#1531AD" stroke-width="1.5" stroke-linecap="round" stroke-linejoin="round"/>
<path d="M21.2421 20.8958H21.2548" stroke="#1531AD" stroke-width="2" stroke-linecap="round" stroke-linejoin="round"/>
<path d="M12.7421 13.1041H12.7548" stroke="#1531AD" stroke-width="2" stroke-linecap="round" stroke-linejoin="round"/>
</svg>
