<svg width="33" height="33" viewBox="0 0 33 33" fill="none" xmlns="http://www.w3.org/2000/svg">
<path fill-rule="evenodd" clip-rule="evenodd" d="M10.727 3.16653H22.287C26.807 3.16653 29.8337 6.33987 29.8337 11.0599V21.9545C29.8337 26.6599 26.807 29.8332 22.287 29.8332H10.727C6.20699 29.8332 3.16699 26.6599 3.16699 21.9545V11.0599C3.16699 6.33987 6.20699 3.16653 10.727 3.16653ZM15.7403 20.4865L22.0737 14.1532C22.527 13.6999 22.527 12.9665 22.0737 12.4999C21.6203 12.0465 20.8737 12.0465 20.4203 12.4999L14.9137 18.0065L12.5803 15.6732C12.127 15.2199 11.3803 15.2199 10.927 15.6732C10.4737 16.1265 10.4737 16.8599 10.927 17.3265L14.1003 20.4865C14.327 20.7132 14.6203 20.8199 14.9137 20.8199C15.2203 20.8199 15.5137 20.7132 15.7403 20.4865Z" fill="url(#paint0_linear_12863_2254)"/>
<defs>
<linearGradient id="paint0_linear_12863_2254" x1="29.8337" y1="29.8332" x2="-1.89728" y2="20.6331" gradientUnits="userSpaceOnUse">
<stop stop-color="#FF5A5F"/>
<stop offset="1" stop-color="#FF8A9B"/>
</linearGradient>
</defs>
</svg>
