<svg width="30" height="30" viewBox="0 0 30 30" fill="none" xmlns="http://www.w3.org/2000/svg">
<path d="M11.275 3.54996L4.53747 8.79996C3.41247 9.67496 2.49997 11.5375 2.49997 12.95V22.2125C2.49997 25.1125 4.86247 27.4875 7.76247 27.4875H22.2375C25.1375 27.4875 27.5 25.1125 27.5 22.225V13.125C27.5 11.6125 26.4875 9.67496 25.25 8.81246L17.525 3.39996C15.775 2.17496 12.9625 2.23746 11.275 3.54996Z" fill="#1531AD"/>
<path opacity="0.4" d="M14.3593 1.77368C15.6212 1.74417 16.9261 2.06518 17.955 2.7854L25.6806 8.19849H25.6797C26.4228 8.7168 27.057 9.52205 27.5039 10.3782C27.951 11.2348 28.25 12.2169 28.25 13.1252V22.2249C28.25 25.5254 25.5526 28.2375 22.2373 28.2375H7.76266C4.44614 28.2375 1.74997 25.5241 1.74997 22.2122V12.9504L1.76266 12.6272C1.81986 11.8668 2.07071 11.0627 2.4238 10.343C2.82733 9.52061 3.40025 8.73418 4.07614 8.20825L10.8144 2.95825L11.0039 2.81763C11.9687 2.13876 13.1762 1.80143 14.3593 1.77368Z" stroke="#80CDEF" stroke-width="1.5" stroke-linecap="round" stroke-linejoin="round"/>
<path d="M15 22.4875V18.7375" stroke="white" stroke-width="1.5" stroke-linecap="round" stroke-linejoin="round"/>
</svg>
