<svg width="30" height="30" viewBox="0 0 30 30" fill="none" xmlns="http://www.w3.org/2000/svg">
<path d="M24.375 15.625C24.375 13.9 25.775 12.5 27.5 12.5V11.25C27.5 6.25 26.25 5 21.25 5H8.74998C3.74998 5 2.49998 6.25 2.49998 11.25V11.875C4.22498 11.875 5.62498 13.275 5.62498 15C5.62498 16.725 4.22498 18.125 2.49998 18.125V18.75C2.49998 23.75 3.74998 25 8.74998 25H21.25C26.25 25 27.5 23.75 27.5 18.75C25.775 18.75 24.375 17.35 24.375 15.625Z" fill="#1531AD" stroke="white" stroke-width="1.5" stroke-linecap="round" stroke-linejoin="round"/>
<path d="M12.5 5L12.5 25" stroke="white" stroke-width="1.5" stroke-linecap="round" stroke-linejoin="round" stroke-dasharray="5 5"/>
</svg>
