<svg width="30" height="30" viewBox="0 0 30 30" fill="none" xmlns="http://www.w3.org/2000/svg">
<path d="M27.5 15V21.25C27.5 25 25 27.5 21.25 27.5H8.75C5 27.5 2.5 25 2.5 21.25V15C2.5 11.6 4.55 9.22503 7.7375 8.82503C8.0625 8.77503 8.4 8.75003 8.75 8.75003H21.25C21.575 8.75003 21.8875 8.76252 22.1875 8.81252C25.4125 9.18752 27.5 11.575 27.5 15Z" stroke="#1531AD" stroke-width="1.5" stroke-linecap="round" stroke-linejoin="round"/>
<path d="M22.1893 8.81247C21.8893 8.76247 21.5768 8.74998 21.2518 8.74998H8.75176C8.40176 8.74998 8.06426 8.77498 7.73926 8.82498C7.91426 8.47498 8.16426 8.14998 8.46426 7.84998L12.5268 3.77497C14.2393 2.07497 17.0143 2.07497 18.7268 3.77497L20.9143 5.98749C21.7143 6.77499 22.1393 7.77497 22.1893 8.81247Z" stroke="#1531AD" stroke-width="1.5" stroke-linecap="round" stroke-linejoin="round"/>
<path d="M27.5 15.625H23.75C22.375 15.625 21.25 16.75 21.25 18.125C21.25 19.5 22.375 20.625 23.75 20.625H27.5" stroke="#1531AD" stroke-width="1.5" stroke-linecap="round" stroke-linejoin="round"/>
</svg>
